<svg id="svg" version="1.1" xmlns="http://www.w3.org/2000/svg" xmlns:xlink="http://www.w3.org/1999/xlink" width="400" height="400" viewBox="0, 0, 400,400"><g id="svgg"><path id="path0" d="M187.000 28.824 C 84.488 36.776,11.624 132.727,31.648 233.400 C 49.361 322.458,133.902 382.587,223.700 369.996 C 321.238 356.320,387.544 263.087,368.352 166.600 C 351.450 81.622,273.155 22.141,187.000 28.824 M211.600 30.405 C 341.936 40.126,413.667 185.764,341.510 294.164 C 269.248 402.721,105.946 392.420,47.792 275.637 C -10.465 158.645,81.669 20.713,211.600 30.405 M110.000 99.218 C 86.998 100.248,75.618 104.643,68.592 115.212 C 57.220 132.318,60.010 149.291,75.484 157.145 C 77.818 158.330,77.696 158.414,79.565 154.335 C 82.226 148.525,82.422 147.161,80.823 145.561 C 74.838 139.577,73.128 134.181,75.597 129.075 C 82.118 115.587,98.850 110.113,121.500 114.055 C 124.385 114.558,124.351 114.488,122.876 116.822 C 122.258 117.800,120.575 120.670,119.136 123.200 C 115.875 128.935,100.174 156.178,93.894 167.000 C 92.234 169.860,90.994 172.324,91.138 172.475 C 91.282 172.627,101.802 172.880,114.515 173.038 C 127.228 173.195,137.693 173.431,137.771 173.562 C 137.849 173.693,137.347 174.633,136.656 175.651 C 132.747 181.409,128.663 187.711,114.322 210.115 C 111.395 214.688,107.935 220.088,106.634 222.115 C 105.333 224.142,102.030 229.400,99.295 233.800 C 96.560 238.200,94.258 241.867,94.179 241.949 C 93.322 242.838,82.806 238.960,76.923 235.584 C 65.799 229.202,60.664 223.927,52.981 210.985 C 52.603 210.347,52.100 210.553,47.723 213.144 C 40.495 217.421,40.385 216.773,50.349 228.527 C 61.395 241.557,72.626 249.165,89.000 254.712 C 112.382 262.633,141.972 261.515,162.400 251.940 L 165.800 250.346 164.200 249.085 C 158.024 244.221,149.947 234.598,145.998 227.400 C 141.827 219.798,141.129 218.224,139.609 212.995 C 137.181 204.641,136.441 190.571,138.269 187.500 C 138.367 187.335,148.487 187.200,160.757 187.200 C 173.027 187.200,183.182 187.085,183.322 186.944 C 183.657 186.610,182.275 184.947,178.271 180.868 C 174.271 176.793,170.363 174.316,163.539 171.530 C 157.477 169.054,157.648 169.388,161.443 167.439 C 171.069 162.498,177.844 156.229,181.180 149.178 C 183.117 145.083,182.828 144.613,179.600 146.606 C 178.830 147.081,175.500 148.878,172.200 150.598 C 164.601 154.558,163.406 155.358,162.624 157.006 C 162.275 157.742,158.658 163.532,154.588 169.872 L 147.187 181.400 145.093 181.660 C 142.043 182.040,135.200 182.053,135.200 181.680 C 135.200 181.504,135.361 181.189,135.557 180.980 C 135.904 180.610,141.358 171.444,156.130 146.400 C 160.088 139.690,165.818 129.977,168.863 124.817 C 175.220 114.043,174.895 115.060,172.700 112.833 C 166.318 106.360,155.141 101.662,141.200 99.595 C 137.175 98.998,119.655 98.786,110.000 99.218 M182.696 103.300 C 178.031 111.458,176.460 114.178,175.014 116.600 C 174.094 118.140,172.025 121.650,170.416 124.400 C 168.807 127.150,166.272 131.470,164.784 134.000 C 153.865 152.556,148.268 162.111,145.688 166.600 C 144.045 169.460,141.552 173.716,140.150 176.058 C 138.747 178.399,137.600 180.430,137.600 180.571 C 137.600 180.712,139.524 180.776,141.875 180.714 L 146.151 180.600 151.775 171.560 C 154.869 166.587,158.498 160.737,159.840 158.560 C 162.535 154.188,163.749 153.087,171.188 148.277 C 191.713 135.004,213.237 132.933,232.061 142.421 C 235.258 144.031,235.358 143.267,230.992 150.600 C 230.076 152.140,228.870 154.210,228.313 155.200 C 225.609 160.005,223.670 163.390,221.209 167.600 C 219.729 170.130,216.449 175.800,213.919 180.200 C 207.887 190.690,203.938 197.533,199.263 205.600 C 197.159 209.230,194.889 213.226,194.219 214.480 C 193.549 215.734,192.263 217.984,191.363 219.480 C 190.462 220.976,186.890 227.105,183.426 233.100 C 179.961 239.095,176.968 244.000,176.774 244.000 C 175.864 244.000,166.642 237.312,163.973 234.716 C 154.108 225.123,149.852 216.185,149.344 204.000 C 149.029 196.436,146.059 197.306,172.880 197.103 C 190.681 196.968,195.694 196.820,196.185 196.412 C 196.950 195.778,200.800 189.463,200.800 188.844 C 200.800 188.025,140.635 188.234,139.953 189.057 C 139.192 189.974,138.954 200.360,139.593 204.800 C 142.485 224.903,155.688 242.372,177.000 254.299 C 204.037 269.428,243.999 258.730,263.427 231.162 C 269.499 222.545,271.229 217.306,271.325 207.238 L 271.400 199.400 240.900 199.298 C 220.964 199.231,210.400 199.057,210.400 198.796 C 210.400 198.577,212.895 194.213,215.945 189.099 C 218.995 183.984,223.887 175.750,226.816 170.800 C 229.746 165.850,233.435 159.640,235.016 157.000 C 245.643 139.246,245.290 140.010,243.500 138.660 C 230.938 129.181,211.373 125.185,194.400 128.630 C 187.179 130.096,178.139 133.256,175.121 135.370 C 173.867 136.249,173.046 136.211,173.589 135.300 C 173.819 134.915,177.209 129.110,181.123 122.400 L 188.240 110.200 221.761 110.115 C 254.927 110.032,256.400 109.975,256.400 108.787 C 256.400 108.613,257.120 107.201,258.000 105.648 C 258.880 104.095,259.600 102.549,259.600 102.212 C 259.600 101.667,255.453 101.600,221.634 101.600 L 183.668 101.600 182.696 103.300 M296.719 101.897 L 269.237 102.006 264.449 110.103 C 261.815 114.556,259.009 119.280,258.213 120.600 C 254.872 126.143,249.200 135.749,249.200 135.866 C 249.200 135.935,248.390 137.255,247.400 138.800 C 246.410 140.345,245.600 141.684,245.600 141.778 C 245.600 141.871,245.077 142.814,244.438 143.873 C 239.294 152.399,233.663 161.821,231.214 166.000 C 229.602 168.750,227.205 172.800,225.887 175.000 C 214.945 193.263,212.683 197.217,212.998 197.532 C 213.146 197.679,226.694 197.890,243.106 198.000 L 272.946 198.200 272.773 215.000 C 272.678 224.240,272.600 237.740,272.600 245.000 L 272.600 258.200 299.838 258.303 L 327.075 258.406 329.068 256.103 C 330.163 254.836,332.127 252.540,333.430 251.000 L 335.800 248.200 336.000 223.400 L 336.200 198.600 340.069 198.400 C 342.196 198.290,344.015 198.110,344.110 198.000 C 344.597 197.435,348.800 189.252,348.800 188.868 C 348.800 188.561,346.816 188.386,342.500 188.310 L 336.200 188.200 336.098 151.930 C 336.012 121.371,336.083 115.639,336.547 115.530 C 337.166 115.384,325.412 101.804,324.660 101.794 C 324.407 101.791,311.833 101.837,296.719 101.897 M272.389 151.278 C 272.375 175.426,272.239 185.912,271.936 186.278 C 271.396 186.928,231.807 187.058,231.407 186.411 C 231.275 186.197,233.042 182.822,235.334 178.911 C 237.627 175.000,240.534 170.000,241.795 167.800 C 243.056 165.600,245.568 161.280,247.378 158.200 C 250.409 153.041,253.109 148.422,258.600 139.000 C 259.755 137.020,260.767 135.220,260.849 135.000 C 260.932 134.780,263.078 131.090,265.617 126.800 C 268.156 122.510,270.482 118.505,270.785 117.900 C 272.386 114.701,272.409 115.189,272.389 151.278 M254.513 148.700 C 254.370 149.085,253.535 150.570,252.658 152.000 C 251.782 153.430,250.493 155.590,249.795 156.800 C 249.097 158.010,246.904 161.790,244.921 165.200 C 242.938 168.610,239.748 174.100,237.832 177.400 C 235.917 180.700,234.181 183.571,233.975 183.780 C 232.606 185.168,233.190 185.210,252.100 185.104 L 270.600 185.000 270.713 180.015 C 270.909 171.347,267.003 162.383,258.000 150.840 C 255.745 147.948,254.972 147.473,254.513 148.700 M170.600 199.209 C 160.480 199.328,151.975 199.566,151.700 199.737 C 150.430 200.525,151.661 210.892,153.667 216.312 C 156.777 224.710,167.178 236.761,173.746 239.577 C 176.294 240.669,176.196 240.704,177.349 238.300 C 177.904 237.145,178.878 235.300,179.514 234.200 C 180.150 233.100,183.399 227.456,186.735 221.658 L 192.800 211.116 192.793 208.258 C 192.787 205.749,191.646 199.913,191.044 199.310 C 190.713 198.979,190.301 198.977,170.600 199.209 M234.839 269.100 C 234.623 269.925,234.090 272.011,233.655 273.735 C 232.683 277.584,232.980 277.365,230.443 276.109 C 219.711 270.798,192.279 281.391,186.549 293.060 C 182.065 302.191,189.298 312.454,208.229 323.822 C 208.860 324.201,208.675 324.570,206.452 327.367 C 201.818 333.199,201.227 335.808,203.955 338.403 C 209.004 343.206,222.000 340.234,222.000 334.276 C 222.000 332.191,219.496 329.468,214.900 326.555 C 213.305 325.544,212.000 324.587,212.000 324.428 C 212.000 324.045,217.680 318.585,220.145 316.598 C 222.459 314.732,221.963 314.282,219.295 315.827 C 216.729 317.312,214.609 318.941,212.086 321.367 L 209.971 323.400 208.286 322.442 C 181.057 306.972,179.740 292.460,204.491 280.601 C 215.372 275.387,228.492 274.373,231.902 278.482 C 232.461 279.156,230.500 289.383,229.531 290.845 C 229.037 291.591,227.948 292.051,224.549 292.950 C 219.375 294.319,216.311 295.544,216.529 296.156 C 216.763 296.814,219.004 296.515,222.501 295.359 C 227.632 293.662,227.993 293.177,214.494 306.150 C 211.004 309.504,210.304 310.400,211.173 310.400 C 211.834 310.400,219.254 303.976,224.553 298.817 C 229.460 294.039,229.694 293.867,229.457 295.200 C 226.092 314.109,226.982 338.648,231.394 348.624 C 232.859 351.937,232.985 351.138,231.849 345.743 C 228.875 331.621,228.690 314.334,231.316 296.028 L 231.800 292.657 234.000 292.142 C 235.210 291.859,238.630 291.160,241.600 290.589 C 247.611 289.433,249.311 288.903,248.938 288.300 C 248.559 287.686,244.146 288.198,237.888 289.581 C 231.402 291.015,231.708 290.986,232.511 290.099 C 234.804 287.565,235.835 282.460,234.586 279.827 C 234.017 278.629,234.047 278.184,234.984 273.767 C 235.541 271.145,235.997 268.685,235.998 268.300 C 236.002 267.040,235.240 267.566,234.839 269.100 M153.200 274.031 C 143.121 275.251,130.229 279.017,123.700 282.649 C 119.475 284.998,120.389 284.786,127.800 281.697 C 131.434 280.182,134.802 279.069,135.039 279.306 C 135.142 279.408,134.866 281.542,134.426 284.046 C 132.476 295.150,131.467 307.920,131.445 321.800 C 131.429 331.319,131.547 333.930,132.103 336.357 C 133.381 341.934,133.836 340.747,133.595 332.472 C 133.144 317.013,133.565 308.083,135.619 289.544 C 136.269 283.684,136.800 278.799,136.800 278.689 C 136.800 278.394,143.236 276.892,147.600 276.168 C 149.690 275.821,154.939 275.437,159.264 275.315 C 166.743 275.103,168.580 274.848,167.856 274.122 C 167.399 273.664,156.776 273.599,153.200 274.031 M151.227 277.438 C 144.815 282.834,139.658 317.869,144.505 323.100 C 146.340 325.079,148.393 323.925,150.165 319.918 C 151.906 315.981,153.570 315.980,155.558 319.915 C 157.947 324.642,162.486 325.340,163.806 321.182 C 164.191 319.968,164.684 320.255,164.987 321.872 C 165.993 327.232,170.441 327.108,172.576 321.660 C 174.318 317.216,174.954 316.494,178.400 315.045 C 178.730 314.906,178.294 314.878,177.431 314.982 C 175.117 315.262,173.245 317.003,171.546 320.457 C 169.222 325.179,168.055 325.490,166.948 321.681 C 165.684 317.332,167.102 310.959,170.031 307.823 C 172.955 304.691,172.714 309.119,169.780 312.422 C 167.240 315.283,167.925 316.567,170.659 314.070 C 173.978 311.039,175.172 307.116,173.250 305.560 C 170.029 302.952,165.677 307.888,164.753 315.200 C 163.705 323.485,159.551 325.932,156.830 319.866 C 154.393 314.434,151.362 314.088,148.652 318.933 C 146.340 323.069,145.685 323.288,145.161 320.104 C 144.493 316.044,144.697 314.449,146.141 312.454 C 146.879 311.434,148.206 309.340,149.090 307.800 C 156.936 294.136,158.545 271.281,151.227 277.438 M154.794 278.984 C 157.336 285.671,152.393 303.517,145.380 312.971 C 144.391 314.304,144.286 313.393,144.761 307.559 C 146.079 291.375,152.525 273.016,154.794 278.984 M233.400 284.000 C 233.248 284.691,233.050 285.183,232.959 285.092 C 232.869 285.002,232.909 284.353,233.050 283.650 C 233.191 282.947,233.389 282.456,233.491 282.558 C 233.593 282.659,233.552 283.309,233.400 284.000 M267.366 297.753 C 262.039 300.140,262.064 308.724,267.415 314.800 C 268.481 316.010,269.712 317.407,270.151 317.905 L 270.948 318.809 269.731 320.105 C 260.399 330.039,258.573 340.800,266.220 340.800 C 275.221 340.800,280.504 328.415,274.744 320.819 L 273.089 318.638 274.445 317.502 C 275.668 316.477,278.497 314.958,280.600 314.197 C 281.091 314.019,281.210 313.836,280.908 313.723 C 280.013 313.388,276.116 314.776,274.053 316.165 L 272.022 317.531 269.850 315.185 C 264.665 309.584,263.880 302.267,268.163 299.461 C 271.432 297.319,272.899 301.909,271.371 309.500 C 270.902 311.830,271.871 310.898,272.954 307.977 C 275.482 301.156,272.392 295.501,267.366 297.753 M259.354 305.911 C 256.762 308.178,255.226 311.147,254.184 315.907 L 253.682 318.200 253.637 316.000 C 253.612 314.790,253.810 312.045,254.075 309.899 C 254.598 305.675,254.204 304.110,253.020 305.712 C 252.476 306.449,251.600 311.418,251.600 313.765 C 251.600 315.215,248.113 321.028,246.983 321.462 C 246.044 321.822,245.906 321.477,245.600 318.005 C 245.054 311.795,243.213 311.592,240.110 317.400 C 236.619 323.934,234.984 324.625,235.016 319.551 C 235.068 311.334,243.177 303.785,246.382 308.971 C 247.426 310.660,248.000 310.798,248.000 309.360 C 248.000 306.409,243.538 304.643,240.147 306.252 C 236.071 308.186,231.782 317.287,232.807 321.830 C 233.865 326.526,237.754 325.443,241.400 319.437 C 243.322 316.272,243.444 316.239,243.692 318.813 C 244.205 324.157,247.937 323.726,250.549 318.020 L 251.382 316.200 251.649 319.871 C 251.934 323.780,252.120 324.400,253.008 324.400 C 253.633 324.400,253.922 323.396,255.106 317.112 C 255.995 312.389,257.574 308.568,259.582 306.281 C 261.122 304.528,261.056 304.422,259.354 305.911 M274.507 323.400 C 277.203 328.396,273.414 336.725,267.400 339.021 C 260.443 341.678,261.524 332.437,269.311 322.683 L 271.800 319.566 272.722 320.683 C 273.229 321.297,274.032 322.520,274.507 323.400 M214.200 327.432 C 219.611 330.968,221.215 333.296,219.766 335.509 C 216.101 341.101,202.951 340.486,204.204 334.781 C 204.516 333.362,210.200 325.600,210.926 325.601 C 211.187 325.601,212.660 326.425,214.200 327.432 " stroke="none" fill="#060606" fill-rule="evenodd"></path><path id="path1" d="M183.600 28.734 C 183.600 29.039,189.668 28.924,190.600 28.602 C 190.820 28.525,189.335 28.449,187.300 28.432 C 185.265 28.414,183.600 28.550,183.600 28.734 M209.400 28.602 C 210.332 28.924,216.400 29.039,216.400 28.734 C 216.400 28.550,214.735 28.414,212.700 28.432 C 210.665 28.449,209.180 28.525,209.400 28.602 M176.400 29.571 C 176.400 29.907,180.758 29.700,181.167 29.345 C 181.258 29.265,180.223 29.200,178.867 29.200 C 177.510 29.200,176.400 29.367,176.400 29.571 M219.233 29.344 C 219.658 29.711,223.600 29.925,223.600 29.581 C 223.600 29.372,222.580 29.200,221.333 29.200 C 220.087 29.200,219.142 29.265,219.233 29.344 M170.800 30.392 C 170.800 30.629,171.556 30.686,172.700 30.536 C 175.285 30.198,175.346 30.000,172.867 30.000 C 171.730 30.000,170.800 30.177,170.800 30.392 M187.600 30.433 C 57.979 40.290,-13.419 186.135,58.490 294.164 C 130.752 402.721,294.054 392.420,352.208 275.637 C 410.640 158.294,318.142 20.507,187.600 30.433 M225.233 30.144 C 225.675 30.524,229.200 30.745,229.200 30.392 C 229.200 30.177,228.270 30.000,227.133 30.000 C 225.997 30.000,225.142 30.065,225.233 30.144 M166.000 31.225 C 166.000 31.503,166.654 31.554,167.900 31.373 C 170.483 30.998,170.541 30.800,168.067 30.800 C 166.876 30.800,166.000 30.980,166.000 31.225 M230.033 30.949 C 230.501 31.366,234.000 31.610,234.000 31.225 C 234.000 30.980,233.124 30.800,231.933 30.800 C 230.797 30.800,229.942 30.867,230.033 30.949 M158.800 32.818 C 158.800 33.083,159.350 33.137,160.300 32.965 C 162.376 32.590,162.432 32.400,160.467 32.400 C 159.550 32.400,158.800 32.588,158.800 32.818 M238.033 32.547 C 238.505 32.963,241.200 33.193,241.200 32.818 C 241.200 32.588,240.450 32.400,239.533 32.400 C 238.617 32.400,237.942 32.466,238.033 32.547 M155.600 33.550 C 155.600 33.742,155.031 34.014,154.336 34.153 C 153.641 34.292,153.157 34.490,153.260 34.593 C 153.363 34.696,154.606 34.438,156.023 34.021 C 158.406 33.318,158.487 33.259,157.100 33.231 C 156.275 33.214,155.600 33.358,155.600 33.550 M243.977 34.021 C 245.394 34.438,246.637 34.696,246.740 34.593 C 246.843 34.490,246.359 34.292,245.664 34.153 C 244.969 34.014,244.400 33.742,244.400 33.550 C 244.400 33.358,243.725 33.214,242.900 33.231 C 241.513 33.259,241.594 33.318,243.977 34.021 M150.000 35.200 C 150.000 35.420,149.460 35.600,148.800 35.600 C 148.140 35.600,147.600 35.780,147.600 36.000 C 147.600 36.220,147.251 36.400,146.824 36.400 C 146.397 36.400,145.936 36.580,145.800 36.800 C 145.478 37.321,145.287 37.365,149.200 36.022 C 151.879 35.103,152.324 34.850,151.300 34.828 C 150.585 34.812,150.000 34.980,150.000 35.200 M250.800 36.022 C 254.713 37.365,254.522 37.321,254.200 36.800 C 254.064 36.580,253.603 36.400,253.176 36.400 C 252.749 36.400,252.400 36.220,252.400 36.000 C 252.400 35.780,251.860 35.600,251.200 35.600 C 250.540 35.600,250.000 35.420,250.000 35.200 C 250.000 34.980,249.415 34.812,248.700 34.828 C 247.676 34.850,248.121 35.103,250.800 36.022 M140.400 38.373 C 140.400 38.578,140.026 38.865,139.570 39.010 C 139.113 39.154,138.809 39.342,138.894 39.427 C 138.978 39.511,139.937 39.233,141.024 38.809 C 142.916 38.070,142.944 38.037,141.700 38.019 C 140.985 38.008,140.400 38.168,140.400 38.373 M258.976 38.809 C 260.063 39.233,261.022 39.511,261.106 39.427 C 261.191 39.342,260.887 39.154,260.430 39.010 C 259.974 38.865,259.600 38.578,259.600 38.373 C 259.600 38.168,259.015 38.008,258.300 38.019 C 257.056 38.037,257.084 38.070,258.976 38.809 M130.800 42.400 C 130.800 42.620,130.440 42.800,130.000 42.800 C 129.560 42.800,129.200 42.982,129.200 43.205 C 129.200 43.441,129.820 43.352,130.679 42.993 C 132.544 42.213,132.757 42.000,131.667 42.000 C 131.190 42.000,130.800 42.180,130.800 42.400 M267.654 42.187 C 268.179 42.713,270.800 43.561,270.800 43.205 C 270.800 42.982,270.440 42.800,270.000 42.800 C 269.560 42.800,269.200 42.620,269.200 42.400 C 269.200 42.180,268.810 42.000,268.333 42.000 C 267.857 42.000,267.551 42.084,267.654 42.187 M125.070 45.079 C 124.448 45.405,124.026 45.759,124.132 45.865 C 124.238 45.971,125.016 45.693,125.862 45.247 C 126.708 44.800,127.130 44.446,126.800 44.460 C 126.470 44.474,125.691 44.752,125.070 45.079 M274.138 45.247 C 274.984 45.693,275.760 45.974,275.863 45.871 C 276.089 45.644,273.657 44.393,273.039 44.418 C 272.797 44.427,273.292 44.800,274.138 45.247 M122.000 46.400 C 122.000 46.620,121.717 46.800,121.371 46.800 C 120.750 46.800,119.367 47.908,119.652 48.178 C 119.734 48.254,120.700 47.797,121.800 47.162 C 123.315 46.286,123.582 46.006,122.900 46.003 C 122.405 46.001,122.000 46.180,122.000 46.400 M278.200 47.162 C 279.300 47.797,280.266 48.254,280.348 48.178 C 280.633 47.908,279.250 46.800,278.629 46.800 C 278.283 46.800,278.000 46.620,278.000 46.400 C 278.000 46.180,277.595 46.001,277.100 46.003 C 276.418 46.006,276.685 46.286,278.200 47.162 M116.400 49.600 C 116.400 49.820,116.040 50.000,115.600 50.000 C 115.160 50.000,114.800 50.180,114.800 50.400 C 114.800 50.620,114.517 50.800,114.171 50.800 C 113.555 50.800,112.400 51.705,112.400 52.188 C 112.400 52.418,115.235 50.898,116.989 49.727 C 117.678 49.267,117.690 49.200,117.089 49.200 C 116.710 49.200,116.400 49.380,116.400 49.600 M283.011 49.727 C 284.765 50.898,287.600 52.418,287.600 52.188 C 287.600 51.705,286.445 50.800,285.829 50.800 C 285.483 50.800,285.200 50.620,285.200 50.400 C 285.200 50.180,284.840 50.000,284.400 50.000 C 283.960 50.000,283.600 49.820,283.600 49.600 C 283.600 49.380,283.290 49.200,282.911 49.200 C 282.310 49.200,282.322 49.267,283.011 49.727 M110.800 52.800 C 110.800 53.020,110.517 53.200,110.171 53.200 C 109.826 53.200,109.264 53.479,108.924 53.819 C 107.824 54.919,108.588 54.800,110.418 53.586 C 111.497 52.870,111.924 52.403,111.500 52.402 C 111.115 52.401,110.800 52.580,110.800 52.800 M289.582 53.586 C 291.412 54.800,292.176 54.919,291.076 53.819 C 290.736 53.479,290.174 53.200,289.829 53.200 C 289.483 53.200,289.200 53.020,289.200 52.800 C 289.200 52.580,288.885 52.401,288.500 52.402 C 288.076 52.403,288.503 52.870,289.582 53.586 M106.460 55.442 C 105.645 56.363,106.082 56.445,107.206 55.582 C 107.856 55.082,107.992 54.820,107.600 54.824 C 107.270 54.828,106.757 55.105,106.460 55.442 M292.220 55.134 C 292.429 55.318,294.400 56.694,296.600 58.192 C 314.704 70.524,331.025 87.030,343.024 105.141 C 344.096 106.759,345.051 107.848,345.146 107.561 C 345.242 107.275,345.113 106.971,344.860 106.887 C 344.607 106.802,344.400 106.428,344.400 106.055 C 344.400 105.682,344.040 105.117,343.600 104.800 C 343.160 104.483,342.800 103.975,342.800 103.672 C 342.800 103.369,342.260 102.617,341.600 102.000 C 340.940 101.383,340.400 100.631,340.400 100.328 C 340.400 100.025,340.040 99.517,339.600 99.200 C 339.160 98.883,338.800 98.375,338.800 98.072 C 338.800 97.769,338.260 97.017,337.600 96.400 C 336.940 95.783,336.400 95.067,336.400 94.808 C 336.400 94.549,335.680 93.646,334.800 92.800 C 333.920 91.954,333.200 91.057,333.200 90.805 C 333.200 90.554,332.300 89.471,331.200 88.400 C 330.100 87.329,329.200 86.259,329.200 86.024 C 329.200 85.460,312.934 69.200,312.371 69.200 C 312.132 69.200,311.246 68.480,310.400 67.600 C 309.554 66.720,308.651 66.000,308.392 66.000 C 308.133 66.000,307.417 65.460,306.800 64.800 C 306.183 64.140,305.463 63.600,305.200 63.600 C 304.937 63.600,304.217 63.060,303.600 62.400 C 302.983 61.740,302.231 61.200,301.928 61.200 C 301.625 61.200,301.117 60.840,300.800 60.400 C 300.483 59.960,299.975 59.600,299.672 59.600 C 299.369 59.600,298.617 59.060,298.000 58.400 C 297.383 57.740,296.631 57.200,296.328 57.200 C 296.025 57.200,295.517 56.840,295.200 56.400 C 294.883 55.960,294.303 55.600,293.912 55.600 C 293.520 55.600,293.200 55.420,293.200 55.200 C 293.200 54.980,292.894 54.800,292.520 54.800 C 292.120 54.800,291.996 54.937,292.220 55.134 M104.400 56.800 C 104.400 57.020,104.112 57.200,103.760 57.200 C 103.409 57.200,102.617 57.740,102.000 58.400 C 101.383 59.060,100.631 59.600,100.328 59.600 C 100.025 59.600,99.517 59.960,99.200 60.400 C 98.883 60.840,98.375 61.200,98.072 61.200 C 97.769 61.200,97.017 61.740,96.400 62.400 C 95.783 63.060,95.063 63.600,94.800 63.600 C 94.537 63.600,93.817 64.140,93.200 64.800 C 92.583 65.460,91.867 66.000,91.608 66.000 C 91.349 66.000,90.446 66.720,89.600 67.600 C 88.754 68.480,87.868 69.200,87.629 69.200 C 87.066 69.200,70.800 85.460,70.800 86.024 C 70.800 86.259,69.900 87.329,68.800 88.400 C 67.700 89.471,66.800 90.554,66.800 90.805 C 66.800 91.057,66.080 91.954,65.200 92.800 C 64.320 93.646,63.600 94.549,63.600 94.808 C 63.600 95.067,63.060 95.783,62.400 96.400 C 61.740 97.017,61.200 97.769,61.200 98.072 C 61.200 98.375,60.840 98.883,60.400 99.200 C 59.960 99.517,59.600 100.025,59.600 100.328 C 59.600 100.631,59.060 101.383,58.400 102.000 C 57.740 102.617,57.200 103.369,57.200 103.672 C 57.200 103.975,56.840 104.483,56.400 104.800 C 55.960 105.117,55.600 105.682,55.600 106.055 C 55.600 106.428,55.393 106.802,55.140 106.887 C 54.887 106.971,54.758 107.275,54.854 107.561 C 54.949 107.848,55.904 106.759,56.976 105.141 C 68.657 87.509,84.764 71.075,102.200 59.000 C 105.759 56.535,105.910 56.400,105.080 56.400 C 104.706 56.400,104.400 56.580,104.400 56.800 M141.200 99.595 C 155.141 101.662,166.318 106.360,172.700 112.833 C 174.895 115.060,175.220 114.043,168.863 124.817 C 165.818 129.977,160.088 139.690,156.130 146.400 C 141.358 171.444,135.904 180.610,135.557 180.980 C 135.361 181.189,135.200 181.504,135.200 181.680 C 135.200 182.053,142.043 182.040,145.093 181.660 L 147.187 181.400 154.588 169.872 C 158.658 163.532,162.275 157.742,162.624 157.006 C 163.406 155.358,164.601 154.558,172.200 150.598 C 175.500 148.878,178.830 147.081,179.600 146.606 C 182.828 144.613,183.117 145.083,181.180 149.178 C 177.844 156.229,171.069 162.498,161.443 167.439 C 157.648 169.388,157.477 169.054,163.539 171.530 C 170.363 174.316,174.271 176.793,178.271 180.868 C 182.275 184.947,183.657 186.610,183.322 186.944 C 183.182 187.085,173.027 187.200,160.757 187.200 C 148.487 187.200,138.367 187.335,138.269 187.500 C 136.441 190.571,137.181 204.641,139.609 212.995 C 141.129 218.224,141.827 219.798,145.998 227.400 C 149.947 234.598,158.024 244.221,164.200 249.085 L 165.800 250.346 162.400 251.940 C 141.972 261.515,112.382 262.633,89.000 254.712 C 72.626 249.165,61.395 241.557,50.349 228.527 C 40.385 216.773,40.495 217.421,47.723 213.144 C 52.100 210.553,52.603 210.347,52.981 210.985 C 60.664 223.927,65.799 229.202,76.923 235.584 C 82.806 238.960,93.322 242.838,94.179 241.949 C 94.258 241.867,96.560 238.200,99.295 233.800 C 102.030 229.400,105.333 224.142,106.634 222.115 C 107.935 220.088,111.395 214.688,114.322 210.115 C 128.663 187.711,132.747 181.409,136.656 175.651 C 137.347 174.633,137.849 173.693,137.771 173.562 C 137.693 173.431,127.228 173.195,114.515 173.038 C 101.802 172.880,91.282 172.627,91.138 172.475 C 90.994 172.324,92.234 169.860,93.894 167.000 C 100.174 156.178,115.875 128.935,119.136 123.200 C 120.575 120.670,122.258 117.800,122.876 116.822 C 124.351 114.488,124.385 114.558,121.500 114.055 C 98.850 110.113,82.118 115.587,75.597 129.075 C 73.128 134.181,74.838 139.577,80.823 145.561 C 82.422 147.161,82.226 148.525,79.565 154.335 C 77.696 158.414,77.818 158.330,75.484 157.145 C 60.010 149.291,57.220 132.318,68.592 115.212 C 74.171 106.820,83.227 102.103,97.400 100.209 C 107.237 98.894,133.951 98.519,141.200 99.595 M259.600 102.212 C 259.600 102.549,258.880 104.095,258.000 105.648 C 257.120 107.201,256.400 108.613,256.400 108.787 C 256.400 109.975,254.927 110.032,221.761 110.115 L 188.240 110.200 181.123 122.400 C 177.209 129.110,173.819 134.915,173.589 135.300 C 173.046 136.211,173.867 136.249,175.121 135.370 C 178.139 133.256,187.179 130.096,194.400 128.630 C 211.373 125.185,230.938 129.181,243.500 138.660 C 245.290 140.010,245.643 139.246,235.016 157.000 C 233.435 159.640,229.746 165.850,226.816 170.800 C 223.887 175.750,218.995 183.984,215.945 189.099 C 212.895 194.213,210.400 198.577,210.400 198.796 C 210.400 199.057,220.964 199.231,240.900 199.298 L 271.400 199.400 271.325 207.238 C 271.229 217.306,269.499 222.545,263.427 231.162 C 243.999 258.730,204.037 269.428,177.000 254.299 C 155.688 242.372,142.485 224.903,139.593 204.800 C 138.954 200.360,139.192 189.974,139.953 189.057 C 140.635 188.234,200.800 188.025,200.800 188.844 C 200.800 189.463,196.950 195.778,196.185 196.412 C 195.694 196.820,190.681 196.968,172.880 197.103 C 146.059 197.306,149.029 196.436,149.344 204.000 C 149.852 216.185,154.108 225.123,163.973 234.716 C 166.642 237.312,175.864 244.000,176.774 244.000 C 176.968 244.000,179.961 239.095,183.426 233.100 C 186.890 227.105,190.462 220.976,191.363 219.480 C 192.263 217.984,193.549 215.734,194.219 214.480 C 194.889 213.226,197.159 209.230,199.263 205.600 C 203.938 197.533,207.887 190.690,213.919 180.200 C 216.449 175.800,219.729 170.130,221.209 167.600 C 223.670 163.390,225.609 160.005,228.313 155.200 C 228.870 154.210,230.076 152.140,230.992 150.600 C 235.358 143.267,235.258 144.031,232.061 142.421 C 213.237 132.933,191.713 135.004,171.188 148.277 C 163.749 153.087,162.535 154.188,159.840 158.560 C 158.498 160.737,154.869 166.587,151.775 171.560 L 146.151 180.600 141.875 180.714 C 139.524 180.776,137.600 180.712,137.600 180.571 C 137.600 180.430,138.747 178.399,140.150 176.058 C 141.552 173.716,144.045 169.460,145.688 166.600 C 148.268 162.111,153.865 152.556,164.784 134.000 C 166.272 131.470,168.807 127.150,170.416 124.400 C 172.025 121.650,174.094 118.140,175.014 116.600 C 176.460 114.178,178.031 111.458,182.696 103.300 L 183.668 101.600 221.634 101.600 C 255.453 101.600,259.600 101.667,259.600 102.212 M331.109 108.600 C 334.733 112.714,336.881 115.451,336.547 115.530 C 336.083 115.639,336.012 121.371,336.098 151.930 L 336.200 188.200 342.500 188.310 C 346.816 188.386,348.800 188.561,348.800 188.868 C 348.800 189.252,344.597 197.435,344.110 198.000 C 344.015 198.110,342.196 198.290,340.069 198.400 L 336.200 198.600 336.000 223.400 L 335.800 248.200 333.430 251.000 C 332.127 252.540,330.163 254.836,329.068 256.103 L 327.075 258.406 299.838 258.303 L 272.600 258.200 272.600 245.000 C 272.600 237.740,272.678 224.240,272.773 215.000 L 272.946 198.200 243.106 198.000 C 226.694 197.890,213.146 197.679,212.998 197.532 C 212.683 197.217,214.945 193.263,225.887 175.000 C 227.205 172.800,229.602 168.750,231.214 166.000 C 233.663 161.821,239.294 152.399,244.438 143.873 C 245.077 142.814,245.600 141.871,245.600 141.778 C 245.600 141.684,246.410 140.345,247.400 138.800 C 248.390 137.255,249.200 135.935,249.200 135.866 C 249.200 135.749,254.872 126.143,258.213 120.600 C 259.009 119.280,261.815 114.556,264.449 110.103 L 269.237 102.006 296.719 101.897 C 311.833 101.837,324.407 101.791,324.660 101.794 C 324.912 101.797,327.815 104.860,331.109 108.600 M53.700 108.998 C 53.425 109.311,53.200 109.844,53.200 110.183 C 53.200 110.522,53.020 110.800,52.800 110.800 C 52.580 110.800,52.400 111.110,52.400 111.489 C 52.400 112.233,52.495 112.127,54.185 109.500 C 54.919 108.358,54.576 108.003,53.700 108.998 M345.815 109.500 C 347.505 112.127,347.600 112.233,347.600 111.489 C 347.600 111.110,347.420 110.800,347.200 110.800 C 346.980 110.800,346.800 110.517,346.800 110.171 C 346.800 109.537,345.890 108.400,345.383 108.400 C 345.232 108.400,345.426 108.895,345.815 109.500 M51.300 112.998 C 51.025 113.311,50.800 113.844,50.800 114.183 C 50.800 114.522,50.620 114.800,50.400 114.800 C 50.180 114.800,50.000 115.160,50.000 115.600 C 50.000 116.040,49.820 116.400,49.600 116.400 C 49.380 116.400,49.200 116.710,49.200 117.089 C 49.200 117.690,49.267 117.678,49.727 116.989 C 51.863 113.788,52.884 111.199,51.300 112.998 M348.431 113.900 C 349.653 115.943,350.000 116.293,350.000 115.480 C 350.000 115.106,349.820 114.800,349.600 114.800 C 349.380 114.800,349.200 114.517,349.200 114.171 C 349.200 113.826,348.943 113.286,348.629 112.971 C 347.605 111.948,347.515 112.368,348.431 113.900 M270.785 117.900 C 270.482 118.505,268.156 122.510,265.617 126.800 C 263.078 131.090,260.932 134.780,260.849 135.000 C 260.767 135.220,259.755 137.020,258.600 139.000 C 253.109 148.422,250.409 153.041,247.378 158.200 C 245.568 161.280,243.056 165.600,241.795 167.800 C 240.534 170.000,237.627 175.000,235.334 178.911 C 233.042 182.822,231.275 186.197,231.407 186.411 C 231.807 187.058,271.396 186.928,271.936 186.278 C 272.641 185.428,272.577 116.800,271.872 116.800 C 271.577 116.800,271.087 117.295,270.785 117.900 M47.273 120.227 C 46.983 120.555,46.803 121.102,46.873 121.441 C 46.960 121.864,47.227 121.672,47.723 120.829 C 48.472 119.555,48.195 119.183,47.273 120.227 M352.700 121.583 C 353.433 122.905,353.849 123.344,353.946 122.898 C 354.026 122.531,353.891 122.164,353.646 122.082 C 353.401 122.000,353.200 121.665,353.200 121.338 C 353.200 120.758,352.286 119.600,351.829 119.600 C 351.703 119.600,352.095 120.492,352.700 121.583 M45.042 125.237 C 44.106 127.113,44.290 127.676,45.247 125.862 C 45.693 125.016,45.974 124.240,45.871 124.137 C 45.768 124.034,45.395 124.529,45.042 125.237 M354.607 125.479 C 355.282 127.093,355.600 127.558,355.600 126.928 C 355.600 126.431,354.409 124.000,354.165 124.000 C 354.068 124.000,354.267 124.666,354.607 125.479 M42.006 131.700 C 42.011 132.428,42.086 132.485,42.400 132.000 C 42.901 131.224,42.901 130.800,42.400 130.800 C 42.180 130.800,42.003 131.205,42.006 131.700 M357.206 131.100 C 357.224 131.977,357.988 132.559,357.994 131.700 C 357.997 131.205,357.820 130.800,357.600 130.800 C 357.380 130.800,357.203 130.935,357.206 131.100 M39.489 137.605 C 39.110 138.047,38.800 138.857,38.800 139.405 C 38.800 139.952,38.620 140.400,38.400 140.400 C 38.180 140.400,38.015 140.985,38.034 141.700 C 38.067 142.928,38.086 142.945,38.386 142.000 C 38.561 141.450,39.083 140.055,39.546 138.900 C 40.484 136.562,40.479 136.449,39.489 137.605 M360.418 138.800 C 360.901 140.010,361.439 141.450,361.614 142.000 C 361.914 142.945,361.933 142.928,361.966 141.700 C 361.985 140.985,361.820 140.400,361.600 140.400 C 361.380 140.400,361.200 139.942,361.200 139.383 C 361.200 138.824,360.827 137.969,360.371 137.483 C 359.552 136.612,359.553 136.629,360.418 138.800 M36.667 145.867 C 36.520 146.013,36.400 146.463,36.400 146.867 C 36.400 147.270,36.220 147.600,36.000 147.600 C 35.780 147.600,35.600 148.140,35.600 148.800 C 35.600 149.460,35.420 150.000,35.200 150.000 C 34.980 150.000,34.812 150.585,34.828 151.300 C 34.850 152.323,35.101 151.880,36.010 149.216 C 37.116 145.976,37.252 145.281,36.667 145.867 M363.190 146.692 C 364.686 151.584,365.120 152.599,365.160 151.300 C 365.182 150.585,365.020 150.000,364.800 150.000 C 364.580 150.000,364.400 149.460,364.400 148.800 C 364.400 148.140,364.220 147.600,364.000 147.600 C 363.780 147.600,363.600 147.251,363.600 146.824 C 363.600 146.397,363.432 145.943,363.226 145.816 C 362.997 145.675,362.983 146.016,363.190 146.692 M258.000 150.840 C 267.003 162.383,270.909 171.347,270.713 180.015 L 270.600 185.000 252.100 185.104 C 233.190 185.210,232.606 185.168,233.975 183.780 C 234.181 183.571,235.917 180.700,237.832 177.400 C 239.748 174.100,242.938 168.610,244.921 165.200 C 246.904 161.790,249.097 158.010,249.795 156.800 C 250.493 155.590,251.782 153.430,252.658 152.000 C 253.535 150.570,254.370 149.085,254.513 148.700 C 254.972 147.473,255.745 147.948,258.000 150.840 M34.153 154.336 C 34.014 155.031,33.742 155.600,33.550 155.600 C 33.358 155.600,33.214 156.275,33.231 157.100 C 33.259 158.487,33.318 158.406,34.021 156.023 C 34.438 154.606,34.696 153.363,34.593 153.260 C 34.490 153.157,34.292 153.641,34.153 154.336 M365.438 154.126 C 365.582 154.746,365.935 156.006,366.223 156.926 L 366.746 158.600 366.773 157.100 C 366.788 156.275,366.620 155.600,366.400 155.600 C 366.180 155.600,365.997 155.285,365.994 154.900 C 365.991 154.515,365.805 153.930,365.582 153.600 C 365.282 153.157,365.244 153.295,365.438 154.126 M32.400 160.467 C 32.400 162.432,32.590 162.376,32.965 160.300 C 33.137 159.350,33.083 158.800,32.818 158.800 C 32.588 158.800,32.400 159.550,32.400 160.467 M367.035 160.300 C 367.410 162.376,367.600 162.432,367.600 160.467 C 367.600 159.550,367.412 158.800,367.182 158.800 C 366.917 158.800,366.863 159.350,367.035 160.300 M30.800 168.067 C 30.800 170.541,30.998 170.483,31.373 167.900 C 31.554 166.654,31.503 166.000,31.225 166.000 C 30.980 166.000,30.800 166.876,30.800 168.067 M368.627 167.900 C 369.002 170.483,369.200 170.541,369.200 168.067 C 369.200 166.876,369.020 166.000,368.775 166.000 C 368.497 166.000,368.446 166.654,368.627 167.900 M30.000 172.867 C 30.000 175.346,30.198 175.285,30.536 172.700 C 30.686 171.556,30.629 170.800,30.392 170.800 C 30.177 170.800,30.000 171.730,30.000 172.867 M369.464 172.700 C 369.802 175.285,370.000 175.346,370.000 172.867 C 370.000 171.730,369.823 170.800,369.608 170.800 C 369.371 170.800,369.314 171.556,369.464 172.700 M29.200 178.867 C 29.200 180.223,29.265 181.258,29.345 181.167 C 29.700 180.758,29.907 176.400,29.571 176.400 C 29.367 176.400,29.200 177.510,29.200 178.867 M370.284 178.700 C 370.589 181.797,370.800 181.865,370.800 178.867 C 370.800 177.510,370.633 176.400,370.429 176.400 C 370.218 176.400,370.155 177.390,370.284 178.700 M28.432 186.900 C 28.449 189.155,28.524 190.820,28.599 190.600 C 28.932 189.623,29.064 182.800,28.750 182.800 C 28.557 182.800,28.414 184.645,28.432 186.900 M371.082 186.500 C 371.334 191.613,371.531 191.775,371.568 186.900 C 371.586 184.645,371.443 182.800,371.250 182.800 C 371.058 182.800,370.982 184.465,371.082 186.500 M191.044 199.310 C 191.646 199.913,192.787 205.749,192.793 208.258 L 192.800 211.116 186.735 221.658 C 183.399 227.456,180.150 233.100,179.514 234.200 C 178.878 235.300,177.904 237.145,177.349 238.300 C 176.196 240.704,176.294 240.669,173.746 239.577 C 167.178 236.761,156.777 224.710,153.667 216.312 C 151.661 210.892,150.430 200.525,151.700 199.737 C 152.469 199.259,190.579 198.846,191.044 199.310 M28.432 213.100 C 28.414 215.355,28.557 217.200,28.750 217.200 C 29.064 217.200,28.932 210.377,28.599 209.400 C 28.524 209.180,28.449 210.845,28.432 213.100 M371.163 213.000 C 371.032 215.200,370.987 217.075,371.063 217.167 C 371.488 217.683,371.618 216.477,371.515 212.952 L 371.400 209.000 371.163 213.000 M29.200 221.333 C 29.200 222.580,29.372 223.600,29.581 223.600 C 29.804 223.600,29.864 222.730,29.725 221.500 C 29.404 218.660,29.200 218.595,29.200 221.333 M370.344 221.200 C 370.203 222.410,370.158 223.475,370.244 223.567 C 370.654 224.004,370.834 223.094,370.722 221.144 L 370.600 219.000 370.344 221.200 M30.000 227.133 C 30.000 228.270,30.177 229.200,30.392 229.200 C 30.629 229.200,30.686 228.444,30.536 227.300 C 30.198 224.715,30.000 224.654,30.000 227.133 M369.536 227.000 C 369.280 228.944,369.365 229.568,369.824 229.110 C 369.947 228.987,369.992 228.012,369.924 226.943 L 369.800 225.000 369.536 227.000 M30.800 231.933 C 30.800 233.124,30.980 234.000,31.225 234.000 C 31.503 234.000,31.554 233.346,31.373 232.100 C 30.998 229.517,30.800 229.459,30.800 231.933 M368.699 231.765 C 368.413 233.631,368.530 234.404,369.024 233.910 C 369.147 233.787,369.192 232.812,369.124 231.743 L 369.000 229.800 368.699 231.765 M32.400 239.533 C 32.400 240.450,32.588 241.200,32.818 241.200 C 33.083 241.200,33.137 240.650,32.965 239.700 C 32.590 237.624,32.400 237.568,32.400 239.533 M367.112 239.379 C 366.834 240.905,366.957 241.577,367.427 241.107 C 367.551 240.982,367.596 240.187,367.527 239.340 L 367.400 237.800 367.112 239.379 M33.231 242.900 C 33.214 243.725,33.358 244.400,33.550 244.400 C 33.742 244.400,34.014 244.969,34.153 245.664 C 34.292 246.359,34.490 246.843,34.593 246.740 C 34.696 246.637,34.438 245.394,34.021 243.977 C 33.318 241.594,33.259 241.513,33.231 242.900 M365.137 246.687 C 364.332 249.499,363.489 252.388,363.262 253.108 C 363.024 253.867,363.008 254.318,363.226 254.184 C 363.432 254.057,363.600 253.603,363.600 253.176 C 363.600 252.749,363.780 252.400,364.000 252.400 C 364.220 252.400,364.400 251.860,364.400 251.200 C 364.400 250.540,364.580 250.000,364.800 250.000 C 365.020 250.000,365.200 249.460,365.200 248.800 C 365.200 248.140,365.380 247.600,365.600 247.600 C 365.820 247.600,366.000 246.895,366.000 246.033 C 366.000 245.172,366.194 244.402,366.432 244.323 C 366.670 244.243,366.805 243.592,366.732 242.876 C 366.630 241.866,366.271 242.724,365.137 246.687 M34.828 248.700 C 34.812 249.415,34.980 250.000,35.200 250.000 C 35.420 250.000,35.600 250.540,35.600 251.200 C 35.600 251.860,35.780 252.400,36.000 252.400 C 36.220 252.400,36.400 252.749,36.400 253.176 C 36.400 253.603,36.580 254.064,36.800 254.200 C 37.321 254.522,37.365 254.713,36.022 250.800 C 35.103 248.121,34.850 247.676,34.828 248.700 M38.034 258.300 C 38.015 259.015,38.180 259.600,38.400 259.600 C 38.620 259.600,38.800 260.058,38.800 260.617 C 38.800 261.176,39.173 262.031,39.629 262.517 C 40.448 263.388,40.447 263.371,39.582 261.200 C 39.099 259.990,38.561 258.550,38.386 258.000 C 38.086 257.055,38.067 257.072,38.034 258.300 M361.549 258.000 C 361.418 258.550,360.912 259.990,360.426 261.200 C 359.556 263.362,359.555 263.385,360.371 262.517 C 360.827 262.031,361.200 261.191,361.200 260.650 C 361.200 260.109,361.396 259.601,361.635 259.522 C 361.874 259.442,362.006 258.842,361.929 258.188 C 361.790 257.028,361.781 257.023,361.549 258.000 M42.006 268.300 C 42.003 268.795,42.180 269.200,42.400 269.200 C 42.901 269.200,42.901 268.776,42.400 268.000 C 42.086 267.515,42.011 267.572,42.006 268.300 M235.998 268.300 C 235.997 268.685,235.541 271.145,234.984 273.767 C 234.047 278.184,234.017 278.629,234.586 279.827 C 235.835 282.460,234.804 287.565,232.511 290.099 C 231.708 290.986,231.402 291.015,237.888 289.581 C 244.146 288.198,248.559 287.686,248.938 288.300 C 249.311 288.903,247.611 289.433,241.600 290.589 C 238.630 291.160,235.210 291.859,234.000 292.142 L 231.800 292.657 231.316 296.028 C 228.690 314.334,228.875 331.621,231.849 345.743 C 232.985 351.138,232.859 351.937,231.394 348.624 C 226.982 338.648,226.092 314.109,229.457 295.200 C 229.694 293.867,229.460 294.039,224.553 298.817 C 219.254 303.976,211.834 310.400,211.173 310.400 C 210.304 310.400,211.004 309.504,214.494 306.150 C 227.993 293.177,227.632 293.662,222.501 295.359 C 219.004 296.515,216.763 296.814,216.529 296.156 C 216.311 295.544,219.375 294.319,224.549 292.950 C 227.948 292.051,229.037 291.591,229.531 290.845 C 230.500 289.383,232.461 279.156,231.902 278.482 C 228.492 274.373,215.372 275.387,204.491 280.601 C 179.740 292.460,181.057 306.972,208.286 322.442 L 209.971 323.400 212.086 321.367 C 214.609 318.941,216.729 317.312,219.295 315.827 C 221.963 314.282,222.459 314.732,220.145 316.598 C 217.680 318.585,212.000 324.045,212.000 324.428 C 212.000 324.587,213.305 325.544,214.900 326.555 C 219.496 329.468,222.000 332.191,222.000 334.276 C 222.000 340.234,209.004 343.206,203.955 338.403 C 201.227 335.808,201.818 333.199,206.452 327.367 C 208.675 324.570,208.860 324.201,208.229 323.822 C 189.298 312.454,182.065 302.191,186.549 293.060 C 192.279 281.391,219.711 270.798,230.443 276.109 C 232.980 277.365,232.683 277.584,233.655 273.735 C 235.110 267.973,235.229 267.600,235.615 267.600 C 235.827 267.600,235.999 267.915,235.998 268.300 M357.479 268.157 C 357.315 268.574,357.275 269.009,357.391 269.124 C 357.755 269.489,358.076 268.891,357.924 268.131 C 357.783 267.435,357.762 267.436,357.479 268.157 M44.418 273.039 C 44.393 273.657,45.644 276.089,45.871 275.863 C 45.974 275.760,45.693 274.984,45.247 274.138 C 44.800 273.292,44.427 272.797,44.418 273.039 M355.200 272.884 C 355.200 273.004,354.928 273.754,354.595 274.551 C 354.262 275.348,354.073 276.000,354.176 276.000 C 354.531 276.000,355.704 273.170,355.452 272.919 C 355.314 272.780,355.200 272.765,355.200 272.884 M167.856 274.122 C 168.580 274.848,166.743 275.103,159.264 275.315 C 154.939 275.437,149.690 275.821,147.600 276.168 C 143.236 276.892,136.800 278.394,136.800 278.689 C 136.800 278.799,136.269 283.684,135.619 289.544 C 133.565 308.083,133.144 317.013,133.595 332.472 C 133.836 340.747,133.381 341.934,132.103 336.357 C 130.376 328.817,131.667 299.755,134.426 284.046 C 134.866 281.542,135.142 279.408,135.039 279.306 C 134.802 279.069,131.434 280.182,127.800 281.697 C 120.389 284.786,119.475 284.998,123.700 282.649 C 130.229 279.017,143.121 275.251,153.200 274.031 C 156.776 273.599,167.399 273.664,167.856 274.122 M46.003 277.100 C 46.001 277.595,46.180 278.000,46.400 278.000 C 46.620 278.000,46.800 278.283,46.800 278.629 C 46.800 279.250,47.908 280.633,48.178 280.348 C 48.254 280.266,47.797 279.300,47.162 278.200 C 46.286 276.685,46.006 276.418,46.003 277.100 M154.856 277.168 C 155.767 277.909,155.798 278.120,155.752 283.268 C 155.661 293.482,152.147 304.152,146.141 312.454 C 144.697 314.449,144.493 316.044,145.161 320.104 C 145.685 323.288,146.340 323.069,148.652 318.933 C 151.362 314.088,154.393 314.434,156.830 319.866 C 159.551 325.932,163.705 323.485,164.753 315.200 C 165.677 307.888,170.029 302.952,173.250 305.560 C 175.172 307.116,173.978 311.039,170.659 314.070 C 167.925 316.567,167.240 315.283,169.780 312.422 C 172.714 309.119,172.955 304.691,170.031 307.823 C 167.102 310.959,165.684 317.332,166.948 321.681 C 168.055 325.490,169.222 325.179,171.546 320.457 C 173.245 317.003,175.117 315.262,177.431 314.982 C 178.294 314.878,178.730 314.906,178.400 315.045 C 174.954 316.494,174.318 317.216,172.576 321.660 C 170.441 327.108,165.993 327.232,164.987 321.872 C 164.684 320.255,164.191 319.968,163.806 321.182 C 162.486 325.340,157.947 324.642,155.558 319.915 C 153.570 315.980,151.906 315.981,150.165 319.918 C 144.993 331.612,140.464 318.072,143.570 300.200 C 146.616 282.668,150.891 273.944,154.856 277.168 M352.700 278.417 C 352.095 279.508,351.703 280.400,351.829 280.400 C 352.286 280.400,353.200 279.242,353.200 278.662 C 353.200 278.335,353.401 278.000,353.646 277.918 C 353.891 277.836,354.026 277.469,353.946 277.102 C 353.849 276.656,353.433 277.095,352.700 278.417 M152.514 278.900 C 149.293 282.411,145.740 295.547,144.761 307.559 C 144.286 313.393,144.391 314.304,145.380 312.971 C 148.339 308.982,151.751 301.855,153.359 296.306 C 156.459 285.602,155.952 275.152,152.514 278.900 M49.200 282.911 C 49.200 283.290,49.380 283.600,49.600 283.600 C 49.820 283.600,50.000 283.960,50.000 284.400 C 50.000 284.840,50.180 285.200,50.400 285.200 C 50.620 285.200,50.800 285.483,50.800 285.829 C 50.800 286.445,51.705 287.600,52.188 287.600 C 52.418 287.600,50.898 284.765,49.727 283.011 C 49.267 282.322,49.200 282.310,49.200 282.911 M233.050 283.650 C 232.909 284.353,232.869 285.002,232.959 285.092 C 233.050 285.183,233.248 284.691,233.400 284.000 C 233.552 283.309,233.593 282.659,233.491 282.558 C 233.389 282.456,233.191 282.947,233.050 283.650 M348.714 285.636 C 348.140 286.606,347.736 287.466,347.816 287.548 C 348.086 287.821,349.200 286.463,349.200 285.862 C 349.200 285.535,349.407 285.198,349.660 285.113 C 349.913 285.029,350.038 284.715,349.939 284.416 C 349.830 284.090,349.339 284.579,348.714 285.636 M52.402 288.500 C 52.401 288.885,52.580 289.200,52.800 289.200 C 53.020 289.200,53.200 289.483,53.200 289.829 C 53.200 290.174,53.479 290.736,53.819 291.076 C 54.919 292.176,54.800 291.412,53.586 289.582 C 52.870 288.503,52.403 288.076,52.402 288.500 M346.322 289.698 C 345.730 290.622,345.316 291.449,345.403 291.537 C 345.683 291.817,346.800 290.478,346.800 289.862 C 346.800 289.535,347.007 289.198,347.260 289.113 C 347.513 289.029,347.648 288.748,347.560 288.489 C 347.472 288.231,346.915 288.775,346.322 289.698 M54.813 292.500 C 54.806 292.885,54.980 293.200,55.200 293.200 C 55.420 293.200,55.600 293.520,55.600 293.912 C 55.600 294.303,55.960 294.883,56.400 295.200 C 56.840 295.517,57.200 296.025,57.200 296.328 C 57.200 296.631,57.740 297.383,58.400 298.000 C 59.060 298.617,59.600 299.369,59.600 299.672 C 59.600 299.975,59.960 300.483,60.400 300.800 C 60.840 301.117,61.200 301.625,61.200 301.928 C 61.200 302.231,61.740 302.983,62.400 303.600 C 63.060 304.217,63.600 304.933,63.600 305.192 C 63.600 305.451,64.320 306.354,65.200 307.200 C 66.080 308.046,66.800 308.943,66.800 309.195 C 66.800 309.446,67.700 310.529,68.800 311.600 C 69.900 312.671,70.800 313.741,70.800 313.976 C 70.800 314.545,87.068 330.800,87.637 330.800 C 87.880 330.800,88.583 331.340,89.200 332.000 C 89.817 332.660,90.533 333.200,90.792 333.200 C 91.051 333.200,91.954 333.920,92.800 334.800 C 93.646 335.680,94.549 336.400,94.808 336.400 C 95.067 336.400,95.783 336.940,96.400 337.600 C 97.017 338.260,97.769 338.800,98.072 338.800 C 98.375 338.800,98.883 339.160,99.200 339.600 C 99.517 340.040,100.025 340.400,100.328 340.400 C 100.631 340.400,101.383 340.940,102.000 341.600 C 102.617 342.260,103.369 342.800,103.672 342.800 C 103.975 342.800,104.483 343.160,104.800 343.600 C 105.117 344.040,105.682 344.400,106.055 344.400 C 106.428 344.400,106.802 344.607,106.887 344.860 C 106.971 345.113,107.275 345.242,107.561 345.146 C 107.848 345.051,106.759 344.099,105.141 343.030 C 87.782 331.570,70.989 315.104,59.074 297.863 C 54.506 291.255,54.828 291.659,54.813 292.500 M343.024 294.859 C 330.774 313.349,313.214 330.912,294.859 343.030 C 293.241 344.099,292.152 345.051,292.439 345.146 C 292.725 345.242,293.029 345.113,293.113 344.860 C 293.198 344.607,293.572 344.400,293.945 344.400 C 294.318 344.400,294.883 344.040,295.200 343.600 C 295.517 343.160,296.025 342.800,296.328 342.800 C 296.631 342.800,297.383 342.260,298.000 341.600 C 298.617 340.940,299.369 340.400,299.672 340.400 C 299.975 340.400,300.483 340.040,300.800 339.600 C 301.117 339.160,301.625 338.800,301.928 338.800 C 302.231 338.800,302.983 338.260,303.600 337.600 C 304.217 336.940,304.933 336.400,305.192 336.400 C 305.451 336.400,306.354 335.680,307.200 334.800 C 308.046 333.920,308.949 333.200,309.208 333.200 C 309.467 333.200,310.183 332.660,310.800 332.000 C 311.417 331.340,312.120 330.800,312.363 330.800 C 312.932 330.800,329.200 314.545,329.200 313.976 C 329.200 313.741,330.100 312.671,331.200 311.600 C 332.300 310.529,333.200 309.446,333.200 309.195 C 333.200 308.943,333.920 308.046,334.800 307.200 C 335.680 306.354,336.400 305.451,336.400 305.192 C 336.400 304.933,336.940 304.217,337.600 303.600 C 338.260 302.983,338.800 302.231,338.800 301.928 C 338.800 301.625,339.160 301.117,339.600 300.800 C 340.040 300.483,340.400 299.975,340.400 299.672 C 340.400 299.369,340.940 298.617,341.600 298.000 C 342.260 297.383,342.800 296.631,342.800 296.328 C 342.800 296.025,343.160 295.517,343.600 295.200 C 344.040 294.883,344.400 294.318,344.400 293.945 C 344.400 293.572,344.607 293.198,344.860 293.113 C 345.113 293.029,345.242 292.725,345.146 292.439 C 345.051 292.152,344.096 293.241,343.024 294.859 M271.913 298.237 C 274.170 299.716,274.583 303.582,272.954 307.977 C 271.871 310.898,270.902 311.830,271.371 309.500 C 272.899 301.909,271.432 297.319,268.163 299.461 C 263.880 302.267,264.665 309.584,269.850 315.185 L 272.022 317.531 274.053 316.165 C 276.116 314.776,280.013 313.388,280.908 313.723 C 281.210 313.836,281.091 314.019,280.600 314.197 C 278.497 314.958,275.668 316.477,274.445 317.502 L 273.089 318.638 274.744 320.819 C 280.504 328.415,275.221 340.800,266.220 340.800 C 258.573 340.800,260.399 330.039,269.731 320.105 L 270.948 318.809 270.151 317.905 C 269.712 317.407,268.481 316.010,267.415 314.800 C 263.886 310.793,262.618 306.605,263.753 302.702 C 265.132 297.960,268.597 296.064,271.913 298.237 M259.582 306.281 C 257.574 308.568,255.995 312.389,255.106 317.112 C 253.922 323.396,253.633 324.400,253.008 324.400 C 252.120 324.400,251.934 323.780,251.649 319.871 L 251.382 316.200 250.549 318.020 C 247.937 323.726,244.205 324.157,243.692 318.813 C 243.444 316.239,243.322 316.272,241.400 319.437 C 237.754 325.443,233.865 326.526,232.807 321.830 C 231.782 317.287,236.071 308.186,240.147 306.252 C 243.538 304.643,248.000 306.409,248.000 309.360 C 248.000 310.798,247.426 310.660,246.382 308.971 C 243.177 303.785,235.068 311.334,235.016 319.551 C 234.984 324.625,236.619 323.934,240.110 317.400 C 243.213 311.592,245.054 311.795,245.600 318.005 C 245.906 321.477,246.044 321.822,246.983 321.462 C 248.113 321.028,251.600 315.215,251.600 313.765 C 251.600 311.418,252.476 306.449,253.020 305.712 C 254.204 304.110,254.598 305.675,254.075 309.899 C 253.810 312.045,253.612 314.790,253.637 316.000 L 253.682 318.200 254.184 315.907 C 255.226 311.147,256.762 308.178,259.354 305.911 C 261.056 304.422,261.122 304.528,259.582 306.281 M269.311 322.683 C 261.524 332.437,260.443 341.678,267.400 339.021 C 274.947 336.139,277.686 326.699,272.722 320.683 L 271.800 319.566 269.311 322.683 M207.466 329.565 C 204.173 333.936,203.570 335.484,204.568 337.008 C 207.758 341.875,221.392 338.627,220.218 333.280 C 219.820 331.471,212.722 325.604,210.926 325.601 C 210.665 325.600,209.108 327.384,207.466 329.565 M108.400 345.383 C 108.400 345.890,109.537 346.800,110.171 346.800 C 110.517 346.800,110.800 346.980,110.800 347.200 C 110.800 347.420,111.110 347.600,111.489 347.600 C 112.092 347.600,112.079 347.532,111.389 347.061 C 109.314 345.645,108.400 345.131,108.400 345.383 M289.582 346.414 C 288.503 347.130,288.076 347.597,288.500 347.598 C 288.885 347.599,289.200 347.420,289.200 347.200 C 289.200 346.980,289.483 346.800,289.829 346.800 C 290.174 346.800,290.736 346.521,291.076 346.181 C 292.176 345.081,291.412 345.200,289.582 346.414 M112.400 347.812 C 112.400 348.295,113.555 349.200,114.171 349.200 C 114.517 349.200,114.800 349.380,114.800 349.600 C 114.800 349.820,115.160 350.000,115.600 350.000 C 116.040 350.000,116.400 350.180,116.400 350.400 C 116.400 350.620,116.710 350.800,117.089 350.800 C 117.690 350.800,117.678 350.733,116.989 350.273 C 115.235 349.102,112.400 347.582,112.400 347.812 M284.885 349.135 C 283.502 349.935,282.593 350.664,282.865 350.755 C 283.137 350.846,283.429 350.713,283.513 350.460 C 283.598 350.207,284.012 350.000,284.433 350.000 C 284.855 350.000,285.200 349.820,285.200 349.600 C 285.200 349.380,285.483 349.200,285.829 349.200 C 286.451 349.200,287.832 348.092,287.548 347.821 C 287.466 347.744,286.268 348.335,284.885 349.135 M119.600 351.829 C 119.600 352.286,120.758 353.200,121.338 353.200 C 121.665 353.200,122.000 353.401,122.082 353.646 C 122.164 353.891,122.531 354.026,122.898 353.946 C 123.344 353.849,122.905 353.433,121.583 352.700 C 120.492 352.095,119.600 351.703,119.600 351.829 M278.200 352.838 C 276.685 353.714,276.418 353.994,277.100 353.997 C 277.595 353.999,278.000 353.820,278.000 353.600 C 278.000 353.380,278.283 353.200,278.629 353.200 C 279.250 353.200,280.633 352.092,280.348 351.822 C 280.266 351.746,279.300 352.203,278.200 352.838 M124.000 354.171 C 124.000 354.429,126.460 355.602,126.961 355.583 C 127.203 355.574,126.770 355.222,126.000 354.800 C 124.606 354.037,124.000 353.846,124.000 354.171 M274.000 354.800 C 273.230 355.222,272.797 355.574,273.039 355.583 C 273.540 355.602,276.000 354.429,276.000 354.171 C 276.000 353.846,275.394 354.037,274.000 354.800 M129.200 356.795 C 129.200 357.018,129.560 357.200,130.000 357.200 C 130.440 357.200,130.800 357.380,130.800 357.600 C 130.800 357.820,131.190 358.000,131.667 358.000 C 132.757 358.000,132.544 357.787,130.679 357.007 C 129.820 356.648,129.200 356.559,129.200 356.795 M269.000 357.178 C 267.733 357.777,267.588 357.942,268.300 357.968 C 268.795 357.985,269.200 357.820,269.200 357.600 C 269.200 357.380,269.560 357.200,270.000 357.200 C 270.440 357.200,270.800 357.020,270.800 356.800 C 270.800 356.300,270.901 356.279,269.000 357.178 M139.500 360.888 C 139.995 361.127,140.400 361.475,140.400 361.661 C 140.400 361.848,140.985 361.992,141.700 361.981 C 142.939 361.963,142.907 361.926,141.000 361.182 C 138.847 360.341,138.037 360.183,139.500 360.888 M258.800 361.220 C 257.006 361.954,257.004 361.957,258.300 361.978 C 259.015 361.990,259.600 361.848,259.600 361.661 C 259.600 361.475,260.005 361.127,260.500 360.888 C 261.958 360.185,260.755 360.420,258.800 361.220 M147.600 363.992 C 147.600 364.217,148.170 364.400,148.867 364.400 C 150.323 364.400,150.270 364.225,148.700 363.849 C 148.047 363.692,147.600 363.750,147.600 363.992 M249.600 364.383 C 247.607 365.049,247.522 365.122,248.700 365.159 C 249.415 365.182,250.000 365.020,250.000 364.800 C 250.000 364.580,250.540 364.400,251.200 364.400 C 251.860 364.400,252.400 364.220,252.400 364.000 C 252.400 363.483,252.224 363.507,249.600 364.383 M243.800 366.000 C 241.504 366.703,241.465 366.736,242.900 366.767 C 243.725 366.785,244.400 366.620,244.400 366.400 C 244.400 366.180,244.715 365.997,245.100 365.994 C 245.485 365.991,246.070 365.813,246.400 365.600 C 247.252 365.049,246.555 365.157,243.800 366.000 M160.000 367.182 C 160.330 367.405,160.945 367.591,161.367 367.594 C 162.390 367.602,162.071 367.373,160.600 367.044 C 159.724 366.848,159.562 366.885,160.000 367.182 M239.000 367.200 C 237.874 367.487,237.905 367.508,239.500 367.553 C 240.435 367.579,241.200 367.420,241.200 367.200 C 241.200 366.753,240.756 366.753,239.000 367.200 M166.000 368.775 C 166.000 369.020,166.876 369.200,168.067 369.200 C 170.541 369.200,170.483 369.002,167.900 368.627 C 166.654 368.446,166.000 368.497,166.000 368.775 M231.200 368.800 C 229.898 369.074,229.947 369.098,231.900 369.147 C 233.068 369.177,234.000 369.023,234.000 368.800 C 234.000 368.358,233.302 368.358,231.200 368.800 M170.800 369.608 C 170.800 369.823,171.730 370.000,172.867 370.000 C 175.346 370.000,175.285 369.802,172.700 369.464 C 171.556 369.314,170.800 369.371,170.800 369.608 M226.600 369.600 L 225.000 369.886 227.100 369.943 C 228.271 369.975,229.200 369.823,229.200 369.600 C 229.200 369.167,229.016 369.167,226.600 369.600 M176.400 370.429 C 176.400 370.633,177.510 370.800,178.867 370.800 C 180.223 370.800,181.258 370.735,181.167 370.655 C 180.758 370.300,176.400 370.093,176.400 370.429 M220.800 370.400 L 219.000 370.680 221.300 370.740 C 222.607 370.774,223.600 370.627,223.600 370.400 C 223.600 369.973,223.550 369.973,220.800 370.400 M183.600 371.266 C 183.600 371.450,185.265 371.586,187.300 371.568 C 189.335 371.551,190.820 371.475,190.600 371.398 C 189.668 371.076,183.600 370.961,183.600 371.266 M212.200 371.200 L 209.000 371.453 212.700 371.527 C 214.949 371.571,216.400 371.443,216.400 371.200 C 216.400 370.980,216.175 370.833,215.900 370.873 C 215.625 370.914,213.960 371.061,212.200 371.200 " stroke="none" fill="#fbfbfb" fill-rule="evenodd"></path></g></svg>