<?xml version="1.0" encoding="UTF-8"?>
<svg xmlns="http://www.w3.org/2000/svg" xmlns:xlink="http://www.w3.org/1999/xlink" width="50pt" height="50pt" viewBox="0 0 50 50" version="1.1">
<g id="surface1">
<path style=" stroke:none;fill-rule:evenodd;fill:rgb(0%,0%,0%);fill-opacity:1;" d="M 23.375 3.601562 C 10.5625 4.597656 1.453125 16.59375 3.953125 29.175781 C 6.171875 40.304688 16.738281 47.824219 27.960938 46.25 C 40.15625 44.539062 48.445312 32.886719 46.046875 20.824219 C 43.929688 10.203125 34.144531 2.765625 23.375 3.601562 M 26.449219 3.800781 C 42.742188 5.015625 51.710938 23.21875 42.6875 36.769531 C 33.65625 50.339844 13.242188 49.054688 5.976562 34.453125 C -1.308594 19.828125 10.210938 2.589844 26.449219 3.800781 M 13.75 12.402344 C 10.875 12.53125 9.453125 13.078125 8.574219 14.402344 C 7.152344 16.539062 7.5 18.664062 9.4375 19.640625 C 9.726562 19.789062 9.710938 19.800781 9.945312 19.289062 C 10.277344 18.566406 10.304688 18.394531 10.101562 18.195312 C 9.355469 17.445312 9.140625 16.773438 9.449219 16.132812 C 10.265625 14.449219 12.355469 13.765625 15.1875 14.257812 C 15.546875 14.320312 15.542969 14.3125 15.359375 14.601562 C 15.28125 14.726562 15.070312 15.085938 14.890625 15.398438 C 14.484375 16.117188 12.523438 19.523438 11.734375 20.875 C 11.53125 21.234375 11.375 21.539062 11.390625 21.558594 C 11.410156 21.578125 12.726562 21.609375 14.3125 21.628906 C 15.90625 21.648438 17.210938 21.679688 17.21875 21.695312 C 17.230469 21.710938 17.167969 21.828125 17.082031 21.957031 C 16.59375 22.675781 16.082031 23.464844 14.289062 26.265625 C 13.921875 26.835938 13.492188 27.511719 13.328125 27.765625 C 13.164062 28.015625 12.753906 28.675781 12.414062 29.226562 C 12.070312 29.773438 11.78125 30.234375 11.773438 30.242188 C 11.664062 30.355469 10.351562 29.867188 9.617188 29.445312 C 8.226562 28.648438 7.582031 27.992188 6.625 26.375 C 6.578125 26.292969 6.511719 26.320312 5.964844 26.640625 C 5.0625 27.179688 5.046875 27.09375 6.292969 28.566406 C 7.671875 30.195312 9.078125 31.148438 11.125 31.839844 C 14.046875 32.828125 17.746094 32.6875 20.300781 31.492188 L 20.726562 31.292969 L 20.523438 31.132812 C 19.753906 30.527344 18.742188 29.324219 18.25 28.425781 C 17.726562 27.476562 17.640625 27.277344 17.453125 26.625 C 17.148438 25.578125 17.054688 23.820312 17.28125 23.4375 C 17.296875 23.414062 18.5625 23.398438 20.09375 23.398438 C 21.628906 23.398438 22.898438 23.382812 22.914062 23.367188 C 22.957031 23.328125 22.785156 23.117188 22.28125 22.609375 C 21.78125 22.101562 21.296875 21.789062 20.441406 21.441406 C 19.6875 21.132812 19.703125 21.171875 20.179688 20.929688 C 21.382812 20.3125 22.230469 19.53125 22.648438 18.648438 C 22.890625 18.132812 22.851562 18.078125 22.449219 18.328125 C 22.351562 18.382812 21.9375 18.609375 21.523438 18.824219 C 20.574219 19.320312 20.425781 19.421875 20.328125 19.625 C 20.285156 19.71875 19.832031 20.441406 19.324219 21.234375 L 18.398438 22.675781 L 18.136719 22.707031 C 17.757812 22.757812 16.898438 22.757812 16.898438 22.710938 C 16.898438 22.6875 16.921875 22.648438 16.945312 22.625 C 16.988281 22.578125 17.671875 21.429688 19.515625 18.300781 C 20.011719 17.460938 20.726562 16.25 21.109375 15.601562 C 21.902344 14.257812 21.859375 14.382812 21.585938 14.101562 C 20.789062 13.296875 19.390625 12.707031 17.648438 12.449219 C 17.148438 12.375 14.957031 12.347656 13.75 12.402344 M 22.835938 12.914062 C 22.253906 13.929688 22.054688 14.273438 21.875 14.574219 C 21.761719 14.765625 21.503906 15.207031 21.304688 15.550781 C 21.101562 15.894531 20.78125 16.433594 20.597656 16.75 C 19.234375 19.070312 18.53125 20.265625 18.210938 20.824219 C 18.007812 21.179688 17.695312 21.714844 17.519531 22.007812 C 17.34375 22.300781 17.199219 22.554688 17.199219 22.570312 C 17.199219 22.589844 17.441406 22.597656 17.734375 22.589844 L 18.269531 22.574219 L 18.972656 21.445312 C 19.359375 20.824219 19.8125 20.09375 19.980469 19.820312 C 20.316406 19.273438 20.46875 19.136719 21.398438 18.535156 C 23.964844 16.875 26.65625 16.617188 29.007812 17.804688 C 29.40625 18.003906 29.421875 17.90625 28.875 18.824219 C 28.757812 19.015625 28.609375 19.273438 28.539062 19.398438 C 28.203125 20 27.960938 20.421875 27.648438 20.949219 C 27.46875 21.265625 27.054688 21.976562 26.742188 22.523438 C 25.984375 23.835938 25.492188 24.691406 24.90625 25.699219 C 24.644531 26.15625 24.359375 26.652344 24.277344 26.8125 C 24.195312 26.96875 24.03125 27.25 23.921875 27.4375 C 23.808594 27.621094 23.359375 28.390625 22.929688 29.136719 C 22.496094 29.886719 22.121094 30.5 22.097656 30.5 C 21.984375 30.5 20.828125 29.664062 20.496094 29.339844 C 19.265625 28.140625 18.734375 27.023438 18.667969 25.5 C 18.628906 24.554688 18.257812 24.664062 21.609375 24.640625 C 23.835938 24.621094 24.460938 24.601562 24.523438 24.550781 C 24.617188 24.472656 25.101562 23.683594 25.101562 23.605469 C 25.101562 23.503906 17.578125 23.53125 17.492188 23.632812 C 17.398438 23.746094 17.367188 25.046875 17.449219 25.601562 C 17.8125 28.113281 19.460938 30.296875 22.125 31.789062 C 25.503906 33.679688 30.5 32.34375 32.929688 28.894531 C 33.6875 27.820312 33.90625 27.164062 33.914062 25.90625 L 33.925781 24.925781 L 30.113281 24.914062 C 27.621094 24.90625 26.300781 24.882812 26.300781 24.851562 C 26.300781 24.820312 26.609375 24.277344 26.992188 23.636719 C 27.375 23 27.984375 21.96875 28.351562 21.351562 C 28.71875 20.730469 29.179688 19.953125 29.375 19.625 C 30.703125 17.40625 30.664062 17.5 30.4375 17.332031 C 28.867188 16.148438 26.421875 15.648438 24.300781 16.078125 C 23.398438 16.261719 22.265625 16.65625 21.890625 16.921875 C 21.734375 17.03125 21.632812 17.027344 21.699219 16.914062 C 21.726562 16.867188 22.148438 16.140625 22.640625 15.300781 L 23.53125 13.773438 L 27.71875 13.765625 C 31.867188 13.753906 32.050781 13.746094 32.050781 13.597656 C 32.050781 13.578125 32.140625 13.398438 32.25 13.203125 C 32.359375 13.011719 32.449219 12.820312 32.449219 12.777344 C 32.449219 12.710938 31.929688 12.699219 27.703125 12.699219 L 22.960938 12.699219 L 22.835938 12.914062 M 37.089844 12.734375 L 33.65625 12.75 L 33.054688 13.765625 C 32.726562 14.320312 32.375 14.910156 32.277344 15.074219 C 31.859375 15.765625 31.148438 16.96875 31.148438 16.984375 C 31.148438 16.992188 31.046875 17.15625 30.925781 17.351562 C 30.800781 17.542969 30.699219 17.710938 30.699219 17.722656 C 30.699219 17.734375 30.632812 17.851562 30.554688 17.984375 C 29.914062 19.050781 29.207031 20.226562 28.902344 20.75 C 28.703125 21.09375 28.398438 21.601562 28.234375 21.875 C 26.867188 24.15625 26.585938 24.652344 26.625 24.691406 C 26.640625 24.710938 28.335938 24.734375 30.390625 24.75 L 34.117188 24.773438 L 34.09375 26.875 C 34.085938 28.03125 34.074219 29.71875 34.074219 30.625 L 34.074219 32.273438 L 37.480469 32.289062 L 40.882812 32.300781 L 41.132812 32.015625 C 41.269531 31.855469 41.515625 31.570312 41.679688 31.375 L 41.976562 31.023438 L 42 27.925781 L 42.023438 24.824219 L 42.507812 24.800781 C 42.773438 24.789062 43 24.765625 43.015625 24.75 C 43.074219 24.679688 43.601562 23.65625 43.601562 23.609375 C 43.601562 23.570312 43.351562 23.546875 42.8125 23.539062 L 42.023438 23.523438 L 42.011719 18.992188 C 42 15.171875 42.007812 14.453125 42.070312 14.441406 C 42.148438 14.421875 40.675781 12.726562 40.582031 12.726562 C 40.550781 12.726562 38.976562 12.730469 37.089844 12.734375 M 34.046875 18.910156 C 34.046875 21.929688 34.03125 23.238281 33.992188 23.285156 C 33.921875 23.367188 28.976562 23.382812 28.925781 23.300781 C 28.910156 23.273438 29.132812 22.851562 29.414062 22.363281 C 29.703125 21.875 30.066406 21.25 30.226562 20.976562 C 30.382812 20.699219 30.695312 20.160156 30.921875 19.773438 C 31.300781 19.132812 31.640625 18.554688 32.324219 17.375 C 32.46875 17.125 32.59375 16.902344 32.605469 16.875 C 32.617188 16.847656 32.882812 16.386719 33.203125 15.851562 C 33.519531 15.3125 33.8125 14.8125 33.847656 14.738281 C 34.046875 14.335938 34.050781 14.398438 34.046875 18.910156 M 31.8125 18.585938 C 31.796875 18.632812 31.691406 18.820312 31.582031 19 C 31.472656 19.179688 31.3125 19.449219 31.226562 19.601562 C 31.136719 19.75 30.863281 20.226562 30.617188 20.648438 C 30.367188 21.078125 29.96875 21.761719 29.726562 22.175781 C 29.492188 22.585938 29.273438 22.945312 29.246094 22.972656 C 29.078125 23.148438 29.148438 23.148438 31.511719 23.140625 L 33.824219 23.125 L 33.839844 22.5 C 33.863281 21.417969 33.375 20.296875 32.25 18.855469 C 31.96875 18.492188 31.871094 18.433594 31.8125 18.585938 M 21.324219 24.898438 C 20.0625 24.914062 18.996094 24.945312 18.960938 24.96875 C 18.804688 25.066406 18.957031 26.359375 19.210938 27.039062 C 19.597656 28.085938 20.898438 29.59375 21.71875 29.945312 C 22.039062 30.085938 22.023438 30.085938 22.167969 29.789062 C 22.238281 29.640625 22.359375 29.414062 22.4375 29.273438 C 22.519531 29.136719 22.925781 28.429688 23.34375 27.707031 L 24.101562 26.390625 L 24.101562 26.03125 C 24.097656 25.71875 23.953125 24.988281 23.882812 24.914062 C 23.839844 24.875 23.789062 24.875 21.324219 24.898438 M 29.355469 33.636719 C 29.328125 33.742188 29.261719 34 29.207031 34.21875 C 29.085938 34.695312 29.125 34.671875 28.804688 34.515625 C 27.464844 33.851562 24.035156 35.171875 23.320312 36.632812 C 22.757812 37.773438 23.664062 39.054688 26.03125 40.476562 C 26.109375 40.523438 26.085938 40.570312 25.804688 40.921875 C 25.226562 41.648438 25.15625 41.976562 25.492188 42.300781 C 26.125 42.898438 27.75 42.53125 27.75 41.785156 C 27.75 41.523438 27.4375 41.183594 26.863281 40.820312 C 26.664062 40.695312 26.5 40.574219 26.5 40.554688 C 26.5 40.507812 27.210938 39.820312 27.515625 39.574219 C 27.804688 39.34375 27.746094 39.285156 27.414062 39.476562 C 27.09375 39.664062 26.828125 39.867188 26.511719 40.171875 L 26.246094 40.425781 L 26.035156 40.304688 C 22.632812 38.371094 22.46875 36.554688 25.5625 35.074219 C 26.921875 34.421875 28.5625 34.296875 28.988281 34.8125 C 29.058594 34.894531 28.8125 36.171875 28.691406 36.355469 C 28.628906 36.449219 28.492188 36.507812 28.070312 36.617188 C 27.421875 36.789062 27.039062 36.945312 27.066406 37.019531 C 27.09375 37.101562 27.375 37.0625 27.8125 36.921875 C 28.453125 36.707031 28.5 36.648438 26.8125 38.269531 C 26.375 38.6875 26.289062 38.800781 26.398438 38.800781 C 26.476562 38.800781 27.40625 37.996094 28.070312 37.351562 C 28.679688 36.753906 28.710938 36.734375 28.679688 36.898438 C 28.261719 39.265625 28.375 42.328125 28.921875 43.578125 C 29.109375 43.992188 29.125 43.890625 28.980469 43.21875 C 28.609375 41.453125 28.585938 39.289062 28.914062 37.003906 L 28.976562 36.582031 L 29.25 36.515625 C 29.398438 36.484375 29.828125 36.394531 30.199219 36.324219 C 30.953125 36.179688 31.164062 36.113281 31.117188 36.039062 C 31.070312 35.960938 30.515625 36.023438 29.734375 36.195312 C 28.925781 36.375 28.960938 36.375 29.0625 36.261719 C 29.351562 35.945312 29.476562 35.304688 29.324219 34.976562 C 29.25 34.828125 29.257812 34.773438 29.375 34.21875 C 29.445312 33.890625 29.5 33.585938 29.5 33.539062 C 29.5 33.382812 29.40625 33.445312 29.355469 33.636719 M 19.148438 34.253906 C 17.890625 34.40625 16.28125 34.875 15.460938 35.332031 C 14.933594 35.625 15.046875 35.597656 15.976562 35.210938 C 16.429688 35.023438 16.851562 34.882812 16.878906 34.914062 C 16.890625 34.925781 16.859375 35.195312 16.804688 35.507812 C 16.558594 36.894531 16.433594 38.492188 16.429688 40.226562 C 16.429688 41.414062 16.445312 41.742188 16.515625 42.046875 C 16.671875 42.742188 16.730469 42.59375 16.699219 41.558594 C 16.640625 39.625 16.695312 38.507812 16.953125 36.195312 C 17.03125 35.460938 17.101562 34.851562 17.101562 34.835938 C 17.101562 34.796875 17.90625 34.609375 18.449219 34.523438 C 18.710938 34.476562 19.367188 34.429688 19.90625 34.414062 C 20.84375 34.390625 21.070312 34.355469 20.984375 34.265625 C 20.925781 34.207031 19.597656 34.199219 19.148438 34.253906 M 18.90625 34.679688 C 18.101562 35.351562 17.457031 39.734375 18.0625 40.386719 C 18.292969 40.632812 18.546875 40.492188 18.773438 39.992188 C 18.988281 39.5 19.195312 39.5 19.445312 39.992188 C 19.742188 40.578125 20.3125 40.667969 20.476562 40.148438 C 20.523438 39.996094 20.585938 40.03125 20.625 40.234375 C 20.75 40.90625 21.304688 40.890625 21.570312 40.207031 C 21.789062 39.652344 21.867188 39.5625 22.300781 39.382812 C 22.34375 39.363281 22.289062 39.359375 22.179688 39.375 C 21.890625 39.40625 21.65625 39.625 21.445312 40.054688 C 21.152344 40.648438 21.007812 40.6875 20.867188 40.210938 C 20.710938 39.664062 20.890625 38.867188 21.253906 38.476562 C 21.617188 38.085938 21.589844 38.640625 21.222656 39.054688 C 20.90625 39.410156 20.992188 39.570312 21.332031 39.257812 C 21.75 38.878906 21.898438 38.390625 21.65625 38.195312 C 21.253906 37.867188 20.710938 38.484375 20.59375 39.398438 C 20.460938 40.4375 19.945312 40.742188 19.601562 39.984375 C 19.296875 39.304688 18.921875 39.261719 18.582031 39.867188 C 18.292969 40.382812 18.210938 40.410156 18.144531 40.015625 C 18.0625 39.507812 18.085938 39.304688 18.265625 39.054688 C 18.359375 38.929688 18.523438 38.667969 18.636719 38.476562 C 19.617188 36.765625 19.820312 33.910156 18.90625 34.679688 M 19.351562 34.875 C 19.667969 35.710938 19.046875 37.9375 18.171875 39.121094 C 18.046875 39.289062 18.035156 39.171875 18.09375 38.445312 C 18.257812 36.421875 19.066406 34.125 19.351562 34.875 M 29.175781 35.5 C 29.15625 35.585938 29.132812 35.648438 29.117188 35.636719 C 29.109375 35.625 29.113281 35.546875 29.132812 35.457031 C 29.148438 35.367188 29.171875 35.304688 29.1875 35.320312 C 29.199219 35.332031 29.195312 35.414062 29.175781 35.5 M 33.421875 37.21875 C 32.753906 37.515625 32.757812 38.589844 33.429688 39.351562 C 33.5625 39.5 33.714844 39.675781 33.769531 39.738281 L 33.867188 39.851562 L 33.71875 40.015625 C 32.550781 41.253906 32.320312 42.601562 33.277344 42.601562 C 34.402344 42.601562 35.0625 41.054688 34.34375 40.101562 L 34.136719 39.828125 L 34.304688 39.6875 C 34.460938 39.5625 34.8125 39.367188 35.074219 39.273438 C 35.136719 39.25 35.148438 39.230469 35.113281 39.214844 C 35 39.171875 34.515625 39.347656 34.257812 39.523438 L 34 39.691406 L 33.730469 39.398438 C 33.085938 38.695312 32.984375 37.78125 33.519531 37.433594 C 33.929688 37.164062 34.113281 37.738281 33.921875 38.6875 C 33.863281 38.976562 33.984375 38.859375 34.117188 38.5 C 34.4375 37.644531 34.046875 36.9375 33.421875 37.21875 M 32.421875 38.238281 C 32.09375 38.523438 31.902344 38.890625 31.773438 39.488281 L 31.710938 39.773438 L 31.703125 39.5 C 31.703125 39.351562 31.726562 39.007812 31.757812 38.738281 C 31.824219 38.210938 31.773438 38.015625 31.625 38.214844 C 31.558594 38.304688 31.449219 38.929688 31.449219 39.21875 C 31.449219 39.402344 31.015625 40.128906 30.875 40.183594 C 30.757812 40.226562 30.738281 40.1875 30.699219 39.75 C 30.632812 38.976562 30.402344 38.949219 30.015625 39.675781 C 29.578125 40.492188 29.375 40.578125 29.375 39.945312 C 29.382812 38.914062 30.398438 37.972656 30.796875 38.621094 C 30.929688 38.832031 31 38.851562 31 38.671875 C 31 38.300781 30.441406 38.078125 30.015625 38.28125 C 29.507812 38.523438 28.972656 39.660156 29.101562 40.226562 C 29.234375 40.816406 29.71875 40.679688 30.175781 39.929688 C 30.414062 39.53125 30.429688 39.53125 30.460938 39.851562 C 30.523438 40.519531 30.992188 40.464844 31.320312 39.75 L 31.421875 39.523438 L 31.457031 39.984375 C 31.492188 40.472656 31.515625 40.550781 31.625 40.550781 C 31.703125 40.550781 31.742188 40.421875 31.890625 39.640625 C 32 39.046875 32.195312 38.570312 32.445312 38.285156 C 32.640625 38.066406 32.632812 38.054688 32.421875 38.238281 M 34.3125 40.425781 C 34.648438 41.046875 34.175781 42.089844 33.425781 42.375 C 32.554688 42.710938 32.691406 41.554688 33.664062 40.335938 L 33.976562 39.945312 L 34.089844 40.085938 C 34.15625 40.164062 34.253906 40.3125 34.3125 40.425781 M 26.773438 40.929688 C 27.453125 41.371094 27.652344 41.664062 27.46875 41.9375 C 27.011719 42.636719 25.367188 42.5625 25.523438 41.847656 C 25.5625 41.671875 26.273438 40.699219 26.367188 40.699219 C 26.398438 40.699219 26.582031 40.804688 26.773438 40.929688 "/>
</g>
</svg>
